<?xml version="1.0" encoding="utf-8"?>
<!-- Generator: Adobe Illustrator 23.0.1, SVG Export Plug-In . SVG Version: 6.00 Build 0)  -->
<svg version="1.1" id="Layer_1" xmlns="http://www.w3.org/2000/svg" xmlns:xlink="http://www.w3.org/1999/xlink" x="0px" y="0px"
	 viewBox="0 0 294.28 103.89" style="enable-background:new 0 0 294.28 103.89;" xml:space="preserve">
<style type="text/css">
	.st0{fill:#ffffff;}
	.st1{fill:#336699;}
</style>
<g>
	<g>
		<path class="st0" d="M7.63,42.47l0.09,19.36c0.04,9.83,5.33,18.89,13.87,23.77l16.81,9.6c8.54,4.88,19.03,4.83,27.52-0.13
			l16.72-9.76c8.49-4.96,13.69-14.06,13.65-23.9L96.2,42.06c-0.05-9.83-5.33-18.89-13.87-23.77l-16.81-9.6
			C56.98,3.81,46.49,3.86,38,8.81l-16.72,9.76C12.78,23.53,7.58,32.64,7.63,42.47"/>
		<g>
			<path class="st1" d="M79.55,60.06c-0.85-1.47-1.69-2.98-2.05-4.66c-0.24-1.13-0.33-2.31-0.35-3.49c0.02-1.17,0.11-2.35,0.35-3.49
				c0.36-1.68,1.19-3.18,2.05-4.66c0.9-1.55,1.75-3.31,1.93-5.07c0,0,0,0,0,0c0.14-1.34-0.12-2.69-1.05-3.95
				c-0.7-0.95-1.68-1.58-2.76-1.9c-0.96-0.38-2.01-0.59-3.04-0.62c-1.64-0.05-3.28,0.06-4.92-0.15c-1.8-0.24-3.43-0.9-5.01-1.77
				c-0.04-0.02-0.09-0.05-0.13-0.07c-0.04-0.03-0.09-0.05-0.13-0.08c-1.54-0.93-2.94-2.01-4.04-3.45c-1-1.31-1.72-2.79-2.59-4.19
				c-1.7-2.73-4.89-4.77-8.11-3.25c-2.64,1.24-3.85,4.43-2.71,7.07c1.44,3.32,5.11,3.75,8.26,3.74c1.7,0,3.42,0.03,5.06,0.55
				c1.1,0.36,2.17,0.87,3.2,1.44c1.01,0.61,1.98,1.27,2.84,2.05c1.27,1.15,2.16,2.63,3.01,4.1c0.32,0.56,0.69,1.13,1.07,1.67
				l-0.02,0c0,0,1.26,2.21,1.31,2.31c0.78,1.45,1.7,2.81,2.33,4.34c0.69,1.67,0.93,3.42,0.97,5.22c0,0.05,0,0.1,0,0.15
				c0,0.05,0,0.1,0,0.15c-0.03,1.8-0.27,3.55-0.97,5.22c-0.63,1.53-1.55,2.89-2.33,4.34c-1.52,2.84-1.68,6.62,1.24,8.65
				c2.4,1.66,5.77,1.12,7.48-1.19C82.59,66.18,81.13,62.79,79.55,60.06z"/>
			<path class="st1" d="M50.55,73.77c-1.64-0.05-3.28,0.06-4.92-0.15c-1.8-0.24-3.43-0.9-5.01-1.77c-0.04-0.02-0.09-0.05-0.13-0.07
				c-0.04-0.03-0.09-0.05-0.13-0.08c-1.54-0.93-2.94-2.01-4.04-3.45c-1-1.31-1.72-2.79-2.59-4.19c-0.1-0.17-1.43-2.38-1.43-2.38
				l0,0.02c-0.27-0.56-0.56-1.12-0.86-1.64c-0.85-1.47-1.69-2.98-2.05-4.66c-0.24-1.13-0.33-2.31-0.35-3.49
				c0.02-1.17,0.11-2.35,0.35-3.49c0.36-1.68,1.19-3.18,2.05-4.66c1.58-2.73,3.04-6.12,0.89-9.02c-1.71-2.31-5.08-2.85-7.48-1.19
				c-2.92,2.03-2.76,5.81-1.24,8.65c0.78,1.45,1.7,2.81,2.33,4.34c0.69,1.67,0.93,3.42,0.97,5.22c0,0.05,0,0.1,0,0.15
				c0,0.05,0,0.1,0,0.15c-0.03,1.8-0.27,3.55-0.97,5.22c-0.63,1.53-1.55,2.89-2.33,4.34c-0.5,0.94-0.85,1.99-1,3.04
				c-0.22,1.06-0.15,2.17,0.3,3.21c0.08,0.18,0.17,0.35,0.26,0.52c0.37,0.71,0.92,1.36,1.68,1.88c0.47,0.33,0.99,0.55,1.52,0.71
				c0.1,0.03,0.2,0.06,0.3,0.1c0.04,0.01,0.08,0.03,0.12,0.04c1.39,0.41,2.94,0.51,4.38,0.5c1.7,0,3.42,0.03,5.06,0.55
				c1.1,0.36,2.17,0.87,3.2,1.44c1.01,0.61,1.98,1.27,2.84,2.05c1.27,1.15,2.16,2.63,3.01,4.1c1.57,2.73,3.78,5.69,7.37,5.28
				c2.86-0.32,5.01-2.97,4.77-5.88C57.12,75.62,53.77,73.87,50.55,73.77z"/>
		</g>
	</g>
	<g>
		<path class="st0" d="M138.73,42.78v0.16l-13.94,35.13h-6.15v-0.11l5.25-12.14l-10.12-22.89v-0.16h6.25l5.04,12.08
			c0.58,1.43,1.11,2.86,1.59,4.61c0.48-1.75,0.95-3.18,1.43-4.61l4.61-12.08H138.73z"/>
		<path class="st0" d="M166.76,60.9v5.51h-23.16V30.38h22.68v5.51h-16.43v9.54h14.36v5.35h-14.36V60.9H166.76z"/>
		<path class="st0" d="M195.86,28.26v38.16h-3.97l-1.01-3.55c-1.91,2.6-4.82,4.13-8.53,4.13c-6.78,0-11.39-5.09-11.39-12.56
			c0-7.1,4.77-12.24,11.39-12.24c3.18,0,6.04,1.27,7.9,3.39c-0.11-2.17-0.16-4.19-0.16-6.78V28.26H195.86z M190.3,54.6
			c0-4.35-2.7-7.31-6.78-7.31c-4.03,0-6.73,2.97-6.73,7.31c0,4.4,2.7,7.37,6.73,7.37C187.65,61.96,190.3,59,190.3,54.6z"/>
		<path class="st0" d="M214.57,28.26h5.78l0.05,38.16h-5.83V28.26z"/>
		<path class="st0" d="M226.5,34.41c0-1.91,1.38-3.45,3.6-3.45c2.23,0,3.6,1.54,3.6,3.5c0,1.91-1.43,3.39-3.6,3.39
			C227.87,37.85,226.5,36.31,226.5,34.41z M227.18,42.78h5.78v23.63h-5.78V42.78z"/>
		<path class="st0" d="M261.68,42.78v0.16l-11.23,23.69h-2.49l-11.18-23.69v-0.16h6.36l4.61,10.6c0.53,1.22,1.06,2.65,1.48,4.45
			c0.48-1.8,0.95-3.23,1.48-4.45l4.61-10.6H261.68z"/>
		<path class="st0" d="M286.91,53.75c0,0.85-0.11,1.8-0.21,2.75h-16.96c0.74,3.82,3.71,5.83,7.52,5.83c2.7,0,4.61-0.79,6.25-2.23
			l2.44,3.71c-2.7,2.17-5.56,3.29-9.22,3.29c-7.58,0-12.77-5.14-12.77-12.56c0-6.94,5.03-12.4,12.19-12.4
			C282.83,42.14,286.91,46.65,286.91,53.75z M269.79,52.58h11.66c-0.16-3.76-2.38-5.72-5.41-5.72
			C272.92,46.86,270.43,48.93,269.79,52.58z"/>
	</g>
</g>
</svg>
